<mxfile host="app.diagrams.net" modified="2023-11-28T07:09:16.114Z" agent="Mozilla/5.0 (Windows NT 10.0; Win64; x64) AppleWebKit/537.36 (KHTML, like Gecko) Chrome/119.0.0.0 Safari/537.36" version="22.1.4" etag="R2SNFROsH4JR9WYyNAvp" type="github">
  <diagram name="페이지-1" id="0EfmqXhZkc3GlkQHfxu3">
    <mxGraphModel>
      <root>
        <mxCell id="0" />
        <mxCell id="1" parent="0" />
      </root>
    </mxGraphModel>
  </diagram>
</mxfile>
